<?xml version="1.0" encoding="utf-8"?>
<!-- Generator: Adobe Illustrator 27.0.0, SVG Export Plug-In . SVG Version: 6.00 Build 0)  -->
<svg version="1.1" id="Layer_1" xmlns="http://www.w3.org/2000/svg" xmlns:xlink="http://www.w3.org/1999/xlink" x="0px" y="0px"
	 viewBox="0 0 80 80" style="enable-background:new 0 0 80 80;" xml:space="preserve">
<style type="text/css">
	.st0{fill:#BE1E2D;}
</style>
<g>
	<path class="st0" d="M40.3,17.5c0.8,5.2,1.4,10.9,2,16.1c0.3,3.2,0.7,7.6,1.1,10.8c0.6,5.6-0.5,11.1-3.1,16.1
		c-0.1,0.3-0.6,0.3-0.7,0c-1.9-3.4-2.7-7-3.2-10.7c-0.5-3.6,0.4-7.2,0.7-10.8c0.2-2.7,0.7-8.1,1-10.7c0.4-3.6,0.8-7.2,1.4-10.8
		C39.7,17.1,40.3,17.1,40.3,17.5L40.3,17.5z"/>
</g>
</svg>
